<svg width="30" height="30" viewBox="0 0 30 30" fill="none" xmlns="http://www.w3.org/2000/svg">
<rect width="30" height="30" fill="#00A071"/>
<g clip-path="url(#clip0_1183_127)">
<path fill-rule="evenodd" clip-rule="evenodd" d="M19.7132 16.7957H16.7653C16.2722 16.7957 15.7994 16.9915 15.4508 17.3402L14.6808 18.1102C14.3321 18.4588 13.8593 18.6546 13.3662 18.6546H10.4183C8.87831 18.6546 7.62988 17.4062 7.62988 15.8662C7.62988 14.3262 8.87831 13.0777 10.4183 13.0777H13.3662C13.8593 13.0777 14.3321 12.8819 14.6808 12.5332L15.4508 11.7632C15.7994 11.4146 16.2722 11.2188 16.7653 11.2188H19.7132C21.2532 11.2188 22.5017 12.4672 22.5017 14.0072C22.5017 15.5472 21.2532 16.7957 19.7132 16.7957ZM16.7653 13.0777C16.2722 13.0777 15.7994 13.2736 15.4508 13.6222L14.6808 14.3922C14.3321 14.7408 13.8593 14.9367 13.3662 14.9367H10.4183C9.90498 14.9367 9.48884 15.3528 9.48884 15.8662C9.48884 16.3795 9.90498 16.7957 10.4183 16.7957H13.3662C13.8593 16.7957 14.3321 16.5998 14.6808 16.2512L15.4508 15.4812C15.7994 15.1325 16.2722 14.9367 16.7653 14.9367H19.7132C20.2266 14.9367 20.6427 14.5206 20.6427 14.0072C20.6427 13.4938 20.2266 13.0777 19.7132 13.0777H16.7653Z" fill="white"/>
<path fill-rule="evenodd" clip-rule="evenodd" d="M19.7134 20.5128H16.7655C16.2724 20.5128 15.7996 20.7087 15.4509 21.0573L14.681 21.8273C14.3323 22.1759 13.8595 22.3718 13.3664 22.3718H10.4185C6.82512 22.3718 3.91211 19.4588 3.91211 15.8654C3.91211 12.272 6.82512 9.35898 10.4185 9.35898H13.3664C13.8595 9.35898 14.3323 9.16313 14.681 8.81448L15.4509 8.04448C15.7996 7.69586 16.2724 7.5 16.7655 7.5H19.7134C23.3068 7.5 26.2199 10.413 26.2199 14.0064C26.2199 17.5998 23.3068 20.5128 19.7134 20.5128ZM16.7655 9.35898C16.2724 9.35898 15.7996 9.55483 15.4509 9.90346L14.681 10.6735C14.3323 11.0221 13.8595 11.2179 13.3664 11.2179H10.4185C7.85181 11.2179 5.77108 13.2987 5.77108 15.8654C5.77108 18.4321 7.85181 20.5128 10.4185 20.5128H13.3664C13.8595 20.5128 14.3323 20.317 14.681 19.9683L15.4509 19.1983C15.7996 18.8497 16.2724 18.6538 16.7655 18.6538H19.7134C22.2801 18.6538 24.3608 16.5731 24.3608 14.0064C24.3608 11.4397 22.2801 9.35898 19.7134 9.35898H16.7655Z" fill="white"/>
</g>
<defs>
<clipPath id="clip0_1183_127">
<rect width="22.5" height="15" fill="white" transform="translate(3.75 7.5)"/>
</clipPath>
</defs>
</svg>
