<svg width="116" height="116" viewBox="0 0 116 116" fill="none" xmlns="http://www.w3.org/2000/svg">
    <rect width="115.264" height="115.264" fill="#00A071" />
    <rect width="91.264" height="91.264" transform="translate(12 12)" fill="#00A071" />
    <g clipPath="url(#clip0_1034_163)">
        <path
            d="M83.0137 48.7826C86.9115 46.5162 86.666 43.5545 85.8935 42.8727C85.0734 42.1488 85.0053 40.6552 85.0274 39.6445C85.0452 38.8274 84.7729 37.1253 82.0448 37.5045C80.6834 37.7522 79.3923 38.2994 78.2631 39.1073C77.2406 39.8162 75.5038 42.8547 73.517 40.0058C71.5301 37.1524 67.8422 39.7755 67.4448 42.4257C67.0519 45.0714 65.4133 48.9994 65.4133 48.9994C65.4133 48.9994 64.1676 52.3313 62.4218 49.1483C60.6805 45.9699 58.6223 46.4259 57.9704 47.5726C57.3185 48.724 55.854 51.5186 55.8317 54.4397C55.8049 57.3608 54.6486 58.2773 53.4609 57.7084C52.2933 57.1522 51.4689 59.1022 51.1291 59.8905C50.4678 61.4252 49.9632 62.9305 48.9566 64.303C47.5858 66.2199 46.7637 68.4816 46.5805 70.8399L46.4522 72.286C46.439 72.4368 46.4733 72.5879 46.5502 72.7178C46.6271 72.8476 46.7427 72.9495 46.8804 73.0089C47.0181 73.0683 47.1709 73.082 47.3168 73.0483C47.4627 73.0145 47.5943 72.9348 47.6927 72.8208C52.2711 67.5919 57.3274 62.8118 62.7945 58.5442C62.9166 58.449 63.0702 58.4048 63.2236 58.4205C63.377 58.4363 63.5186 58.5109 63.6193 58.629C63.7201 58.7471 63.7722 58.8997 63.7651 59.0554C63.7579 59.2112 63.6921 59.3583 63.581 59.4664C58.8158 64.1783 54.3922 69.2309 50.3444 74.585C50.3444 74.585 44.9907 80.8781 41.72 87.6276C41.5713 87.9332 41.5462 88.2852 41.6498 88.6093C41.7534 88.9333 41.9777 89.2038 42.2752 89.3634L43.5562 90.0492C43.7243 90.1398 43.9103 90.1915 44.1006 90.2008C44.2909 90.21 44.4809 90.1764 44.6568 90.1024C44.8327 90.0285 44.9903 89.916 45.1181 89.7731C45.2459 89.6302 45.3407 89.4605 45.3959 89.2761C46.7275 84.9156 48.6123 80.748 51.003 76.8773C52.0223 75.2422 53.6258 74.0674 55.4799 73.5973C55.6974 73.5414 55.9158 73.4882 56.1358 73.4405C57.5112 73.163 58.9211 73.1043 60.3144 73.2667C60.8116 73.319 61.3132 73.2239 61.7579 72.9931C62.2027 72.7622 62.5714 72.4055 62.8192 71.9664C63.0492 71.5607 63.3826 71.2247 63.7846 70.9936C64.1867 70.7625 64.6428 70.6448 65.1052 70.6526C66.1683 70.6783 67.2254 70.8221 68.2574 71.0815C71.3783 71.8264 72.8829 68.648 72.8829 68.648C72.8829 68.648 73.767 66.3725 70.6103 64.4537C69.9587 64.0576 68.9775 63.374 69.2509 62.4694C69.6948 61.0022 72.2714 60.5597 73.508 60.4987C75.611 60.3949 80.616 59.8711 83.0404 57.257C86.1614 53.8934 81.9421 52.6293 81.9421 52.6293C81.9421 52.6293 79.1159 51.0536 83.0137 48.7826Z"
            fill="white" />
        <path
            d="M42.3621 53.5554C42.3782 53.4011 42.4517 53.2588 42.5677 53.1573C42.6837 53.0558 42.8336 53.0027 42.9869 53.0088C43.1401 53.0149 43.2854 53.0798 43.3932 53.1902C43.5009 53.3006 43.5631 53.4483 43.5672 53.6034C43.6577 57.7153 43.8999 62.9356 44.4804 68.3501C44.9473 66.3441 45.8066 64.4528 47.0075 62.7878C47.6061 61.8804 48.0962 60.9044 48.4675 59.8802C48.6014 59.5552 48.7354 59.2256 48.8738 58.9006C49.289 57.9434 50.1195 56.011 51.8608 55.3473C52.3288 55.1674 52.8308 55.0964 53.3297 55.1396C53.359 54.9 53.374 54.6588 53.3743 54.4173C53.3863 53.4911 53.4985 52.5691 53.7092 51.6678L50.2534 52.9003C48.6416 53.4782 46.9137 51.9431 47.7174 50.6519L47.7397 50.6158C47.9424 50.292 48.1993 50.0064 48.4987 49.7715L54.3655 45.1258C55.1799 44.3918 55.8396 43.4993 56.3053 42.5017C56.7709 41.5041 57.0329 40.4219 57.0757 39.3196C57.1962 35.5994 50.9365 38.85 50.9365 38.85C50.9365 38.85 46.7797 40.5793 48.4719 37.2202C50.1596 33.8611 51.5303 31.6037 51.9723 30.2313C52.4144 28.8632 51.2535 28.335 50.2311 28.3846C49.2042 28.4388 49.5658 27.4681 49.5658 27.4681L49.6997 26.3484C49.769 25.8131 49.6314 25.2714 49.3158 24.836C49.1557 24.5574 48.8976 24.3502 48.593 24.2556C48.2884 24.161 47.9598 24.1861 47.6727 24.3258C47.3544 24.4662 47.083 24.6967 46.8913 24.9895L46.3333 25.8248C46.1275 26.0646 45.849 26.2287 45.5413 26.2916C45.2335 26.3545 44.9138 26.3126 44.6321 26.1724C43.6767 25.7886 42.8328 26.4207 42.5516 27.5224C42.181 28.9852 42.3149 34.1818 42.0783 35.2743C41.8372 36.3714 40.4531 36.7236 38.6806 34.5294C36.9124 32.3351 32.6843 32.913 33.095 35.807C33.5058 38.7056 38.8011 47.6179 38.993 49.2794C39.1806 50.9453 36.7249 51.6 34.6934 49.3742C32.6664 47.1529 29.5231 47.2115 29.4472 49.618C29.3713 52.0244 33.9299 57.528 35.9347 59.4061C37.9394 61.2844 35.0595 62.7111 33.2513 61.7223C31.443 60.729 26.2326 63.2212 33.9835 66.6706C36.1078 67.5899 38.1309 68.7316 40.02 70.0771C40.1905 70.2025 40.3924 70.2769 40.6027 70.2919C40.8129 70.307 41.0232 70.262 41.2094 70.1621C41.3957 70.0623 41.5505 69.9115 41.6562 69.7271C41.7618 69.5426 41.8142 69.3319 41.8073 69.1188C41.6361 63.9243 41.8215 58.724 42.3621 53.5554Z"
            fill="white" />
    </g>
    <defs>
        <clipPath id="clip0_1034_163">
            <rect width="75.264" height="75.264" fill="white" transform="translate(20 20)" />
        </clipPath>
    </defs>
</svg>
    